<svg width="60" height="60" viewBox="0 0 60 60" fill="none" xmlns="http://www.w3.org/2000/svg">
<g clip-path="url(#clip0_828_31925)">
<path d="M30 10C18.95 10 10 27.24 10 48.5C10 49 10.01 49.5 10.02 50H14.02C14.01 49.5 14 49 14 48.5C14 43.99 14.43 39.7 15.19 35.78C16.11 36.54 17.26 37 18.5 37C18.59 37 18.68 36.99 18.77 36.99C20.47 44.58 24.85 50 30 50C35.15 50 39.53 44.58 41.23 36.99C41.32 36.99 41.41 37 41.5 37C42.74 37 43.89 36.54 44.81 35.78C45.57 39.7 46 43.99 46 48.5C46 49 45.99 49.5 45.98 50H49.98C49.99 49.5 50 49 50 48.5C50 27.24 41.05 10 30 10ZM17 31C17 29.94 17.54 29.36 18.03 29.12C18.02 29.42 18 29.7 18 30C18 31 18.06 31.97 18.14 32.92C17.63 32.73 17 32.15 17 31ZM37.54 35.15C37.04 37.88 36.15 40.25 35.06 42.08C33.27 45.06 31.36 46 30 46C28.64 46 26.73 45.06 24.94 42.08C23.84 40.25 22.96 37.88 22.46 35.15C22.17 33.55 22 31.82 22 30C22 28.82 22.07 27.67 22.2 26.57C22.26 26.04 22.34 25.52 22.43 25.01L29.95 21.25L37.64 25.52C37.69 25.86 37.75 26.2 37.79 26.56C37.92 27.66 37.99 28.8 37.99 29.99C38 31.82 37.83 33.55 37.54 35.15ZM41.86 32.92C41.94 31.97 42 31 42 30C42 29.7 41.98 29.42 41.97 29.12C42.46 29.36 43 29.94 43 31C43 32.15 42.37 32.73 41.86 32.92Z" fill="black"/>
<path fill-rule="evenodd" clip-rule="evenodd" d="M33 39H27V37H33V39Z" fill="black"/>
<path fill-rule="evenodd" clip-rule="evenodd" d="M25 32V28H27V32H25Z" fill="black"/>
<path fill-rule="evenodd" clip-rule="evenodd" d="M33 32V28H35V32H33Z" fill="black"/>
</g>
<defs>
<clipPath id="clip0_828_31925">
<rect width="40" height="40" fill="white" transform="translate(10 10)"/>
</clipPath>
</defs>
</svg>
